#Comment line ignore any data following # character 
#Hierarchical Translation and Rotation (.htr) file 
[Header]	
#Header keywords are followed by a single value 
FileType HTR		#Single word string
DataType HTRS		#Translation followed by rotation and scale data
FileVersion 1		#integer
NumSegments 25		#integer
NumFrames 4		#integer
DataFrameRate 30		#integer, data frame rate in this file
EulerRotationOrder ZYX
CalibrationUnits mm
RotationUnits Degrees
GlobalAxisofGravity Y
BoneLengthAxis Y
ScaleFactor 1.00
[SegmentNames&Hierarchy]
#CHILD	PARENT
BN_Tick_Root GLOBAL
BN_Torso BN_Tick_Root
BN_L_Leg_Front01 BN_Torso
BN_L_Leg_Rear01 BN_Torso
BN_MetalTop BN_Torso
BN_Neck BN_Torso
BN_R_Leg_Front01 BN_Torso
BN_R_Leg_Rear01 BN_Torso
BN_Sack BN_Torso
BN_L_Leg_Front02 BN_L_Leg_Front01
BN_L_Leg_Front03 BN_L_Leg_Front02
BN_L_Leg_Rear02 BN_L_Leg_Rear01
BN_L_Leg_Rear03 BN_L_Leg_Rear02
BN_Head BN_Neck
BN_Needle BN_Head
BN_R_Leg_Front02 BN_R_Leg_Front01
BN_R_Leg_Front03 BN_R_Leg_Front02
BN_R_Leg_Rear02 BN_R_Leg_Rear01
BN_R_Leg_Rear03 BN_R_Leg_Rear02
BN_SackDef01 BN_Sack
BN_SackDef02 BN_Sack
BN_SackDef03 BN_Sack
BN_SackDef04 BN_Sack
BN_SackDef05 BN_Sack
BN_SackDef06 BN_Sack
[BasePosition]
#SegmentName Tx, Ty, Tz, Rx, Ry, Rz, BoneLength
BN_Tick_Root 0.000000 0.000000 0.000000 -90.000000 0.000000 0.000000 10.000000 
BN_Torso 0.000000 0.000000 0.000000 0.000000 0.000000 0.000000 10.000000 
BN_L_Leg_Front01 0.000000 0.000000 0.000000 0.000000 0.000000 0.000000 10.000000 
BN_L_Leg_Rear01 0.000000 0.000000 0.000000 0.000000 0.000000 0.000000 10.000000 
BN_MetalTop 0.000000 0.000000 0.000000 0.000000 0.000000 0.000000 10.000000 
BN_Neck 0.000000 0.000000 0.000000 0.000000 0.000000 0.000000 10.000000 
BN_R_Leg_Front01 0.000000 0.000000 0.000000 0.000000 0.000000 0.000000 10.000000 
BN_R_Leg_Rear01 0.000000 0.000000 0.000000 0.000000 0.000000 0.000000 10.000000 
BN_Sack 0.000000 0.000000 0.000000 0.000000 0.000000 0.000000 10.000000 
BN_L_Leg_Front02 0.000000 0.000000 0.000000 0.000000 0.000000 0.000000 10.000000 
BN_L_Leg_Front03 0.000000 0.000000 0.000000 0.000000 0.000000 0.000000 10.000000 
BN_L_Leg_Rear02 0.000000 0.000000 0.000000 0.000000 0.000000 0.000000 10.000000 
BN_L_Leg_Rear03 0.000000 0.000000 0.000000 0.000000 0.000000 0.000000 10.000000 
BN_Head 0.000000 0.000000 0.000000 0.000000 0.000000 0.000000 10.000000 
BN_Needle 0.000000 0.000000 0.000000 0.000000 0.000000 0.000000 10.000000 
BN_R_Leg_Front02 0.000000 0.000000 0.000000 0.000000 0.000000 0.000000 10.000000 
BN_R_Leg_Front03 0.000000 0.000000 0.000000 0.000000 0.000000 0.000000 10.000000 
BN_R_Leg_Rear02 0.000000 0.000000 0.000000 0.000000 0.000000 0.000000 10.000000 
BN_R_Leg_Rear03 0.000000 0.000000 0.000000 0.000000 0.000000 0.000000 10.000000 
BN_SackDef01 0.000000 0.000000 0.000000 0.000000 0.000000 0.000000 10.000000 
BN_SackDef02 0.000000 0.000000 0.000000 0.000000 0.000000 0.000000 10.000000 
BN_SackDef03 0.000000 0.000000 0.000000 0.000000 0.000000 0.000000 10.000000 
BN_SackDef04 0.000000 0.000000 0.000000 0.000000 0.000000 0.000000 10.000000 
BN_SackDef05 0.000000 0.000000 0.000000 0.000000 0.000000 0.000000 10.000000 
BN_SackDef06 0.000000 0.000000 0.000000 0.000000 0.000000 0.000000 10.000000 
#Beginning of Data. Separated by tabs
#Fr	Tx	Ty	Tz	Rx	Ry	Rz	SF
[BN_Tick_Root]
16 135.728470 270.275452 -0.000044 0.000000 -0.000000 30.063925 302.441772
17 159.648987 318.075226 -0.000054 0.000000 -0.000000 35.686172 355.892761
18 178.731537 356.491516 -0.000065 0.000000 -0.000000 40.722466 398.787109
19 191.363708 382.396973 -0.000078 0.000000 -0.000000 44.977715 427.606720
[BN_Torso]
16 52.768684 36.171219 213.800095 9.380544 2.416239 -5.207212 223.166687
17 72.981651 39.416775 213.800018 9.392645 2.235688 -5.897536 229.326080
18 36.635201 16.192175 213.800034 9.266239 2.061910 -10.935257 217.519608
19 10.489146 4.033036 213.800034 8.912167 1.883240 -15.193177 214.095169
[BN_L_Leg_Front01]
16 -68.477791 10.734189 -26.804373 -41.144688 48.411411 161.626740 74.316254
17 -68.477791 10.734189 -26.804373 -36.218243 54.077595 170.958481 74.316254
18 -68.477791 10.734189 -26.804373 -33.016743 58.423759 171.758957 74.316254
19 -68.477791 10.734189 -26.804373 -33.679073 58.143993 171.140167 74.316254
[BN_L_Leg_Rear01]
16 -72.133743 -73.994843 -18.268616 71.923653 41.181133 -109.042862 104.939293
17 -72.133743 -73.994843 -18.268616 73.310783 41.352261 -116.898483 104.939293
18 -72.133743 -73.994843 -18.268616 73.036926 41.380543 -117.128815 104.939293
19 -72.133743 -73.994843 -18.268616 72.615875 41.663002 -117.469284 104.939293
[BN_MetalTop]
16 0.000008 13.737477 26.403606 89.999283 -12.929121 -90.000786 29.763546
17 0.000008 13.737477 26.403606 89.999130 -12.929125 -90.000931 29.763546
18 0.000008 13.737477 26.403606 89.999008 -12.929121 -90.001106 29.763546
19 0.000008 13.737477 26.403606 89.998856 -12.929121 -90.001259 29.763546
[BN_Neck]
16 0.000014 95.233284 10.002091 -19.278488 -80.633430 31.752327 95.757088
17 0.000014 95.233284 10.002091 -19.253105 -80.634346 31.728951 95.757088
18 0.000014 95.233284 10.002091 -19.227751 -80.635292 31.705599 95.757088
19 0.000014 95.233284 10.002091 -19.202366 -80.636215 31.682222 95.757088
[BN_R_Leg_Front01]
16 68.477768 10.734107 -26.804314 35.220974 52.561634 26.024290 74.316193
17 68.477768 10.734107 -26.804314 26.985214 60.643166 16.112730 74.316193
18 68.477768 10.734107 -26.804314 27.297598 60.800049 16.381811 74.316193
19 68.477768 10.734107 -26.804314 28.091385 60.882271 17.097794 74.316193
[BN_R_Leg_Rear01]
16 72.133751 -73.994873 -18.268644 -66.648895 17.951101 -77.179764 104.939331
17 72.133751 -73.994873 -18.268644 -65.811005 22.415409 -79.761383 104.939331
18 72.133751 -73.994873 -18.268644 -67.373352 32.262440 -67.105782 104.939331
19 72.133751 -73.994873 -18.268644 -68.116058 37.444920 -61.247639 104.939331
[BN_Sack]
16 -0.000000 -78.024918 33.657791 89.998001 4.068179 -90.000427 84.974907
17 -0.000000 -78.024918 33.657791 89.998291 2.837112 -90.001724 84.974907
18 -0.000000 -78.024918 33.657791 89.998589 1.606039 -90.002998 84.974907
19 -0.000000 -78.024918 33.657791 89.999481 0.288493 -90.000839 84.974907
[BN_L_Leg_Front02]
16 142.805023 -0.000015 -0.000104 5.612565 -36.060860 -135.781601 142.805023
17 142.805023 -0.000015 -0.000104 -2.911995 -23.359617 -115.103485 142.805023
18 142.805023 -0.000015 -0.000104 -2.888806 -15.403481 -110.757751 142.805023
19 142.805023 -0.000015 -0.000104 -2.883216 -15.404917 -110.783287 142.805023
[BN_L_Leg_Front03]
16 124.143021 -0.000045 0.000007 0.354800 -0.300351 138.173721 124.143021
17 124.143021 -0.000045 0.000007 0.352442 -0.374574 123.966408 124.143021
18 124.143021 -0.000045 0.000007 0.354234 -0.391146 119.836205 124.143021
19 124.143021 -0.000045 0.000007 0.353912 -0.390784 119.857925 124.143021
[BN_L_Leg_Rear02]
16 139.939041 0.000075 -0.000022 4.953389 -46.996731 111.301811 139.939041
17 139.939041 0.000075 -0.000022 17.985012 -40.234631 88.045372 139.939041
18 139.939041 0.000075 -0.000022 13.435175 -32.501888 90.766541 139.939041
19 139.939041 0.000075 -0.000022 10.739363 -27.065384 92.099983 139.939041
[BN_L_Leg_Rear03]
16 142.839615 0.000179 -0.000060 0.000844 -0.002190 -132.164612 142.839615
17 142.839615 0.000179 -0.000060 0.000474 -0.002299 -113.318283 142.839615
18 142.839615 0.000179 -0.000060 0.000474 -0.002299 -113.296082 142.839615
19 142.839615 0.000179 -0.000060 0.000473 -0.002299 -113.273865 142.839615
[BN_Head]
16 57.062447 -0.000030 0.000000 12.227896 7.259059 -19.626659 57.062447
17 57.062447 -0.000030 0.000000 12.227900 7.259062 -19.626667 57.062447
18 57.062447 -0.000030 0.000000 12.227895 7.259059 -19.626659 57.062447
19 57.062447 -0.000030 0.000000 12.227897 7.259060 -19.626665 57.062447
[BN_Needle]
16 33.915195 69.677711 -0.000104 0.000003 0.000030 87.896805 77.493378
17 33.915195 69.677711 -0.000103 0.000003 0.000030 87.896805 77.493378
18 33.915195 69.677711 -0.000103 0.000003 0.000030 87.896805 77.493378
19 33.915195 69.677711 -0.000102 0.000003 0.000030 87.896805 77.493378
[BN_R_Leg_Front02]
16 142.804947 -0.000060 0.000060 8.583813 -23.386002 99.056274 142.804947
17 142.804947 -0.000060 0.000060 -1.889035 -24.980438 129.627594 142.804947
18 142.804947 -0.000060 0.000060 -1.854259 -24.981010 129.526230 142.804947
19 142.804947 -0.000060 0.000060 -1.819484 -24.981539 129.424881 142.804947
[BN_R_Leg_Front03]
16 124.143005 -0.000060 -0.000156 -0.353523 -0.424329 -109.302612 124.143005
17 124.143005 -0.000060 -0.000156 -0.354060 -0.315316 -134.897476 124.143005
18 124.143005 -0.000060 -0.000156 -0.353973 -0.315801 -134.821823 124.143005
19 124.143005 -0.000060 -0.000156 -0.353886 -0.316286 -134.746155 124.143005
[BN_R_Leg_Rear02]
16 139.939011 -0.000149 0.000015 -24.610273 -39.591660 -77.966995 139.939011
17 139.939011 -0.000149 0.000015 -21.748207 -37.223404 -80.374184 139.939011
18 139.939011 -0.000149 0.000015 -14.102237 -31.248453 -88.581398 139.939011
19 139.939011 -0.000149 0.000015 -12.058619 -25.725521 -87.963852 139.939011
[BN_R_Leg_Rear03]
16 142.839417 0.000075 0.000119 0.002330 -0.000287 104.028503 142.839417
17 142.839417 0.000075 0.000119 0.002327 -0.000308 105.072731 142.839417
18 142.839417 0.000075 0.000119 0.002308 -0.000425 110.845673 142.839417
19 142.839417 0.000075 0.000119 0.002316 -0.000381 108.674988 142.839417
[BN_SackDef01]
16 249.782272 -3.760844 42.949425 -128.408218 -44.374973 -11.740845 253.475800
17 249.782272 -3.760844 42.949425 -128.408218 -44.374973 -11.740845 253.475800
18 249.782272 -3.760844 42.949425 -128.408218 -44.374973 -11.740845 253.475800
19 249.782272 -3.760844 42.949425 -128.408218 -44.374973 -11.740845 253.475800
[BN_SackDef02]
16 138.789795 -62.131748 45.674385 32.077126 -27.375721 -88.781525 158.773758
17 138.789795 -62.131748 45.674385 32.077126 -27.375721 -88.781525 158.773758
18 138.789795 -62.131748 45.674385 32.077126 -27.375721 -88.781525 158.773758
19 138.789795 -62.131748 45.674385 32.077126 -27.375721 -88.781525 158.773758
[BN_SackDef03]
16 249.782272 -3.760785 -42.949661 18.144459 44.375008 -11.740894 253.475845
17 249.782272 -3.760785 -42.949661 18.144459 44.375008 -11.740894 253.475845
18 249.782272 -3.760785 -42.949661 18.144459 44.375008 -11.740894 253.475845
19 249.782272 -3.760785 -42.949661 18.144459 44.375008 -11.740894 253.475845
[BN_SackDef04]
16 138.789780 -62.131645 -45.674473 146.059982 27.375723 -88.781555 158.773743
17 138.789780 -62.131645 -45.674473 146.059982 27.375723 -88.781555 158.773743
18 138.789780 -62.131645 -45.674473 146.059982 27.375723 -88.781555 158.773743
19 138.789780 -62.131645 -45.674473 146.059982 27.375723 -88.781555 158.773743
[BN_SackDef05]
16 118.790161 46.167137 -63.831196 0.155741 51.314110 90.605110 142.537460
17 118.790161 46.167137 -63.831196 0.155741 51.314110 90.605110 142.537460
18 118.790161 46.167137 -63.831196 0.155741 51.314110 90.605110 142.537460
19 118.790161 46.167137 -63.831196 0.155741 51.314110 90.605110 142.537460
[BN_SackDef06]
16 118.790207 46.167194 63.831219 152.058487 -51.314072 90.605019 142.537537
17 118.790207 46.167194 63.831219 152.058487 -51.314072 90.605019 142.537537
18 118.790207 46.167194 63.831219 152.058487 -51.314072 90.605019 142.537537
19 118.790207 46.167194 63.831219 152.058487 -51.314072 90.605019 142.537537
